# xmcd CD database file
#
# Track frame offsets:
#	150
#	30006
#	50322
#	71359
#	89943
#	107885
#	125580
#	143580
#	161643
#	185253
#	196968
#	213803
#	230824
#	249798
#	270167
#	290209
#	311029
#	329484
#
# Disc length: 4705 seconds
#
# Revision: 0
# Processed by: cddbd v1.5.2PL0 Copyright (c) Steve Scherf et al.
# Submitted via: CDex 1.70beta2
#
DISCID=03125f12
DTITLE=Schiller - Desire
DYEAR=2008
DGENRE=New Age
TTITLE0=Let Me Love You (With Kim Sanders)
TTITLE1=Heartbeat
TTITLE2=Black (With Jette Von Roth)
TTITLE3=Breathe (With September)
TTITLE4=Desire (With Xavier Naidoo)
TTITLE5=Fate (With Isis Gee)
TTITLE6=Everything (With Helen Boulding)
TTITLE7=Tried Of Being Alone (With Tarja Turunen)
TTITLE8=The Farthest (With Anna Maria Mühe)
TTITLE9=Ile Aye (With Stephenie Coker)
TTITLE10=Lonely (With Damae)
TTITLE11=Zenith (With Klaus Schulze)
TTITLE12=Destiny (With Despina Vandi)
TTITLE13=Wunschtraum
TTITLE14=Porque Te Vas (WithAna Torroja)
TTITLE15=Tired (Mit Jaël
TTITLE16=Wehmut
TTITLE17=Forever (With Kim Sanders)
EXTD=YEAR: 2008
EXTT0=
EXTT1=
EXTT2=
EXTT3=
EXTT4=
EXTT5=
EXTT6=
EXTT7=
EXTT8=
EXTT9=
EXTT10=
EXTT11=
EXTT12=
EXTT13=
EXTT14=
EXTT15=
EXTT16=
EXTT17=
PLAYORDER=
